<svg width="236" height="132" viewBox="0 0 236 132" fill="none" xmlns="http://www.w3.org/2000/svg">
<g clip-path="url(#clip0_503_706)">
<path d="M19.8671 27.2275C28.3047 27.2275 33.3867 20.5313 33.3867 12.9512C33.3867 5.7974 27.5893 0 20.4371 0C14.1242 0 8.8638 4.52029 7.71886 10.5011C7.56355 11.2941 7.19678 17.3724 0 15.2328C4.10725 23.3416 11.9599 27.2275 19.8671 27.2275ZM58.3243 77.666C56.5945 64.9081 46.5296 55.4347 34.1715 54.6053C34.1715 54.6053 34.1715 54.6053 30.6937 40.41C27.6521 27.9891 10.6415 26.9449 8.98936 37.1734C4.40133 65.5921 4.40133 65.5921 4.40133 65.5921L29.9155 80.9786C31.0902 81.6824 31.4685 83.2057 30.7664 84.3787C30.0609 85.5517 28.5393 85.9317 27.3662 85.2279C27.3629 85.2263 27.3563 85.223 27.3563 85.223L9.35118 74.3683L2.27831 120.209H14.04V131.736H30.6937L34.0079 120.209H50.242L46.1991 103.722C54.7011 98.3229 59.7567 88.3026 58.3243 77.666Z" fill="white"/>
<path d="M80.0099 78.3975C84.3148 78.3975 87.7135 77.3071 90.2058 75.1263C92.6981 72.9455 93.9585 69.9434 93.9868 66.1199C93.9868 62.0415 92.7477 58.912 90.2695 56.7312C87.7914 54.5504 84.329 53.4458 79.8825 53.4175H74.0198V78.3975H80.0099ZM80.6047 50.8685C85.646 50.8685 89.5898 52.228 92.4362 54.9469C95.2825 57.6658 96.734 61.3901 96.7907 66.1199C96.7907 68.8954 96.1605 71.409 94.9002 73.6606C93.6398 75.9122 91.8272 77.6894 89.4624 78.9922C87.0975 80.295 84.2016 80.9464 80.7746 80.9464H71.2159V50.8685H80.6047ZM109.621 81.4562C107.128 81.4562 105.259 80.7553 104.013 79.3533C102.767 77.9514 102.144 75.806 102.144 72.9172V61.3193H104.692V72.7897C104.692 74.9139 105.096 76.507 105.903 77.569C106.71 78.6311 107.95 79.1622 109.621 79.1622C111.688 79.1622 113.331 78.4541 114.549 77.038C115.766 75.6219 116.389 73.6252 116.418 71.0479V61.3193H118.967V75.6361C119.023 77.0805 119.094 78.8506 119.179 80.9464H116.63C116.602 79.3321 116.545 78.185 116.46 77.5053H116.333C115.766 78.7232 114.867 79.6861 113.635 80.3942C112.403 81.1022 111.065 81.4562 109.621 81.4562ZM141.355 69.476C141.355 67.6918 140.69 66.1836 139.359 64.9516C138.027 63.7196 136.413 63.1036 134.515 63.1036C132.675 63.1036 131.089 63.7196 129.757 64.9516C128.426 66.1836 127.647 67.6918 127.421 69.476H141.355ZM134.685 60.8095C137.404 60.8095 139.613 61.6875 141.313 63.4435C143.012 65.1994 143.876 67.4652 143.904 70.2407V71.7701H127.421C127.534 73.9792 128.263 75.7564 129.609 77.1017C130.954 78.447 132.703 79.1338 134.855 79.1622C136.186 79.1622 137.454 78.8435 138.658 78.2063C139.861 77.569 140.789 76.7265 141.44 75.6786L143.309 77.2504C141.469 80.0543 138.636 81.4562 134.813 81.4562C131.811 81.4279 129.41 80.4508 127.612 78.5249C125.814 76.599 124.9 74.1208 124.872 71.0904C124.872 68.1449 125.799 65.7021 127.655 63.7621C129.51 61.822 131.853 60.8379 134.685 60.8095ZM158.731 78.3975C163.036 78.3975 166.434 77.3071 168.927 75.1263C171.419 72.9455 172.679 69.9434 172.708 66.1199C172.708 62.0415 171.469 58.912 168.99 56.7312C166.512 54.5504 163.05 53.4458 158.603 53.4175H152.741V78.3975H158.731ZM159.326 50.8685C164.367 50.8685 168.311 52.228 171.157 54.9469C174.003 57.6658 175.455 61.3901 175.512 66.1199C175.512 68.8954 174.881 71.409 173.621 73.6606C172.361 75.9122 170.548 77.6894 168.183 78.9922C165.818 80.295 162.922 80.9464 159.495 80.9464H149.937V50.8685H159.326ZM182.734 75.5086C182.734 76.5849 183.166 77.4628 184.029 78.1426C184.893 78.8223 185.962 79.1622 187.237 79.1622C189.531 79.1622 191.237 78.5603 192.356 77.3566C193.475 76.1529 194.034 74.5174 194.034 72.4499V71.0904H190.975C188.37 71.0904 186.345 71.4869 184.9 72.2799C183.456 73.0729 182.734 74.1492 182.734 75.5086ZM188.511 60.8095C191.145 60.8095 193.099 61.4185 194.374 62.6363C195.648 63.8541 196.3 65.5535 196.328 67.7342V73.5544C196.328 76.7265 196.456 79.1905 196.71 80.9464H194.331C194.162 80.0685 194.077 79.0064 194.077 77.7602H193.992C192.575 80.2242 190.296 81.4562 187.152 81.4562C185.028 81.4562 183.343 80.9323 182.096 79.8844C180.85 78.8364 180.213 77.4204 180.185 75.6361C180.185 73.4553 181.126 71.8126 183.01 70.7081C184.893 69.6035 187.52 69.0512 190.89 69.0512H194.034V67.9042C194.034 66.2898 193.538 65.0861 192.547 64.2931C191.556 63.5001 190.211 63.1036 188.511 63.1036C186.246 63.1036 184.249 63.84 182.521 65.3127L181.034 63.5709C181.969 62.6646 183.123 61.9778 184.497 61.5105C185.87 61.0432 187.208 60.8095 188.511 60.8095ZM204.57 55.6691H207.119V61.3193H212.727V63.6134H207.119V76.4432C207.119 77.2646 207.36 77.9231 207.841 78.4187C208.322 78.9143 208.988 79.1622 209.838 79.1622C210.772 79.1622 211.735 78.9356 212.727 78.4824L212.939 80.7765C211.664 81.2297 210.546 81.4562 209.583 81.4562C207.912 81.4562 206.659 80.9889 205.823 80.0543C204.988 79.1197 204.57 77.916 204.57 76.4432V63.6134H200.322V61.3193H204.57V55.6691ZM232.651 69.476C232.651 67.6918 231.985 66.1836 230.654 64.9516C229.323 63.7196 227.709 63.1036 225.811 63.1036C223.97 63.1036 222.384 63.7196 221.053 64.9516C219.722 66.1836 218.943 67.6918 218.717 69.476H232.651ZM225.981 60.8095C228.7 60.8095 230.909 61.6875 232.609 63.4435C234.308 65.1994 235.172 67.4652 235.2 70.2407V71.7701H218.717C218.83 73.9792 219.559 75.7564 220.905 77.1017C222.25 78.447 223.999 79.1338 226.151 79.1622C227.482 79.1622 228.75 78.8435 229.953 78.2063C231.157 77.569 232.085 76.7265 232.736 75.6786L234.605 77.2504C232.764 80.0543 229.932 81.4562 226.109 81.4562C223.107 81.4279 220.706 80.4508 218.908 78.5249C217.109 76.599 216.196 74.1208 216.168 71.0904C216.168 68.1449 217.095 65.7021 218.95 63.7621C220.805 61.822 223.149 60.8379 225.981 60.8095Z" fill="white"/>
</g>
<defs>
<clipPath id="clip0_503_706">
<rect width="235.2" height="131.736" fill="white"/>
</clipPath>
</defs>
</svg>
