<svg width="34" height="76" viewBox="0 0 34 76" fill="none" xmlns="http://www.w3.org/2000/svg">
<path d="M11.3776 15.5545C16.2096 15.5545 19.12 11.7291 19.12 7.39876C19.12 3.31193 15.7999 0 11.704 0C8.08871 0 5.07614 2.58235 4.42045 5.99905C4.33152 6.45209 4.12147 9.92448 0 8.7022C2.35215 13.3346 6.84924 15.5545 11.3776 15.5545ZM33.4013 44.369C32.4107 37.0806 26.6467 31.6687 19.5694 31.1948C19.5694 31.1948 19.5694 31.1948 17.5777 23.0854C15.8359 15.9896 6.09421 15.3931 5.14805 21.2364C2.52057 37.4714 2.52056 37.4714 2.52056 37.4714L17.1321 46.2614C17.8048 46.6634 18.0215 47.5337 17.6194 48.2038C17.2154 48.8739 16.3439 49.091 15.6722 48.6889C15.6703 48.688 15.6665 48.6861 15.6665 48.6861L5.35526 42.4851L1.30475 68.6728H8.04046V75.258H17.5777L19.4757 68.6728H28.7727L26.4574 59.2543C31.3264 56.1698 34.2216 50.4454 33.4013 44.369Z" fill="#4ECCA3"/>
</svg>
