<svg width="64" height="64" viewBox="0 0 64 64" fill="none" xmlns="http://www.w3.org/2000/svg">
<g clip-path="url(#clip0_504_970)">
<path d="M20.36 14.17C20.36 14.17 20.36 28.135 22.16 34.625C23.045 37.825 24.15 39.84 26.805 37.845L37.105 37.74C39.755 39.765 41.655 37.825 42.23 34.535C43.58 26.775 43.58 14.16 43.58 14.16H20.36V14.17Z" fill="#47352D"/>
<path d="M27.585 30.68C24.18 31.46 21.425 31.93 19.71 34.51C17.78 37.41 18.115 40.375 17.365 43.145C16.21 47.41 15.345 49.605 16.295 54.97C16.38 55.45 16.855 55.87 17.335 55.99C18.155 56.155 19.19 55.99 20.385 55.89C20.55 58.365 21.355 61.94 22.78 64H33L32 30.02C30.27 30.08 29.245 30.31 27.585 30.68Z" fill="#A800FF"/>
<g opacity="0.54">
<path d="M22.51 40.97C22.51 47.54 19.89 50.55 19.89 55.89Z" fill="url(#paint0_linear_504_970)"/>
<path d="M22.51 40.97C22.51 47.54 19.89 50.55 19.89 55.89" stroke="black" stroke-width="2" stroke-miterlimit="10"/>
</g>
<path d="M17.525 55.505C17.53 56.84 17.77 57.69 18.63 59.325C18.57 59.335 20.32 62.28 22.09 63.725C22.715 64.235 23.485 63.82 23.08 63.305C21.8 61.92 20.545 59.515 20.66 59.48C21.595 59.395 21.32 58.225 21.075 57.6C20.68 56.64 20.49 56.185 20.32 55.2C20.16 54.1 17.61 54.38 17.525 55.505Z" fill="#9B643C"/>
<path d="M36.415 30.68C39.82 31.46 42.575 31.93 44.29 34.51C46.22 37.41 45.885 40.375 46.635 43.145C47.79 47.41 48.655 49.605 47.705 54.97C47.62 55.45 47.145 55.87 46.665 55.99C45.845 56.155 44.81 55.99 43.615 55.89C43.45 58.365 42.645 61.94 41.22 64H31L32 30.02C33.73 30.08 34.755 30.31 36.415 30.68Z" fill="#A800FF"/>
<g opacity="0.54">
<path d="M41.49 40.97C41.49 47.54 44.11 50.55 44.11 55.89Z" fill="url(#paint1_linear_504_970)"/>
<path d="M41.49 40.97C41.49 47.54 44.11 50.55 44.11 55.89" stroke="black" stroke-width="2" stroke-miterlimit="10"/>
</g>
<path d="M46.4751 55.505C46.4701 56.84 46.2301 57.69 45.3701 59.325C45.4301 59.335 43.6801 62.28 41.9101 63.725C41.2851 64.235 40.5151 63.82 40.9201 63.305C42.2001 61.92 43.4551 59.515 43.3401 59.48C42.4051 59.395 42.6801 58.225 42.9251 57.6C43.3201 56.64 43.5101 56.185 43.6801 55.2C43.8401 54.1 46.3901 54.38 46.4751 55.505Z" fill="#9B643C"/>
<path d="M31.9699 33.65C31.1345 33.65 30.3333 33.3181 29.7426 32.7274C29.1518 32.1366 28.8199 31.3354 28.8199 30.5V27.805H35.1199V30.5C35.1199 31.3354 34.7881 32.1366 34.1973 32.7274C33.6066 33.3181 32.8054 33.65 31.9699 33.65Z" fill="#7A4C32"/>
<path d="M32 24.535C38.412 24.535 43.61 19.8631 43.61 14.1C43.61 8.33692 38.412 3.66501 32 3.66501C25.588 3.66501 20.39 8.33692 20.39 14.1C20.39 19.8631 25.588 24.535 32 24.535Z" fill="#47352D"/>
<path d="M32 6.17999C24.86 6.17999 22.995 11.715 22.995 19.485C22.995 27.26 28.53 29.63 32 29.63C35.47 29.63 41.005 27.26 41.005 19.485C41.005 11.71 39.14 6.17999 32 6.17999Z" fill="#9B643C"/>
<path d="M28.92 19.805C28.92 20.64 28.36 21.315 27.67 21.315C26.98 21.315 26.42 20.64 26.42 19.805C26.42 18.97 26.98 18.295 27.67 18.295C28.365 18.29 28.92 18.965 28.92 19.805ZM35.08 19.805C35.08 20.64 35.64 21.315 36.33 21.315C37.02 21.315 37.58 20.64 37.58 19.805C37.58 18.97 37.02 18.295 36.33 18.295C35.64 18.29 35.08 18.965 35.08 19.805Z" fill="#42312C"/>
<path d="M34.7249 12.275C33.7749 13.185 29.0599 17.435 22.5649 18.545V9.83499C22.5649 9.83499 25.3699 4.26999 32.0999 4.26999C38.8299 4.26999 41.6349 9.97499 41.6349 9.97499V18.545C41.6349 18.545 37.2249 16.855 35.0099 12.33C34.9549 12.22 34.8099 12.19 34.7249 12.275Z" fill="#47352D"/>
<path d="M34.71 24.905H29.3C28.99 24.905 28.855 25.115 29.06 25.425C29.345 25.865 30.415 26.705 32.005 26.705C33.595 26.705 34.665 25.865 34.95 25.425C35.15 25.11 35.02 24.905 34.71 24.905Z" fill="#352620"/>
<path d="M33.31 22.77C32.85 22.9 32.37 22.965 32 22.965C31.63 22.965 31.155 22.9 30.69 22.77C30.495 22.715 30.415 22.9 30.485 23.025C30.63 23.28 31.22 23.8 31.995 23.8C32.77 23.8 33.36 23.28 33.505 23.025C33.585 22.9 33.505 22.715 33.31 22.77Z" fill="#7A4C32"/>
<path opacity="0.3" d="M25.3051 47.635C29.4701 44.65 34.5301 44.65 38.6951 47.635" stroke="black" stroke-width="2" stroke-miterlimit="10"/>
</g>
<defs>
<linearGradient id="paint0_linear_504_970" x1="19.8925" y1="48.4305" x2="22.5115" y2="48.4305" gradientUnits="userSpaceOnUse">
<stop stop-color="white"/>
<stop offset="1"/>
</linearGradient>
<linearGradient id="paint1_linear_504_970" x1="44.1075" y1="48.4305" x2="41.4885" y2="48.4305" gradientUnits="userSpaceOnUse">
<stop stop-color="white"/>
<stop offset="1"/>
</linearGradient>
<clipPath id="clip0_504_970">
<rect width="64" height="64" fill="white"/>
</clipPath>
</defs>
</svg>
