<svg width="64" height="64" viewBox="0 0 64 64" fill="none" xmlns="http://www.w3.org/2000/svg">
<g clip-path="url(#clip0_504_915)">
<path d="M39.3298 24.4942H31.4294C28.2418 24.4942 25.504 27.2338 25.504 30.4196V64H44.4445V48.0782L45.2569 44.9636V30.4196C45.2569 27.232 42.5174 24.4942 39.3298 24.4942Z" fill="#9268CA"/>
<path d="M32 29.3333C29.8783 29.3333 27.8434 30.1762 26.3431 31.6765C24.8429 33.1768 24 35.2116 24 37.3333C24 39.4551 24.8429 41.4899 26.3431 42.9902C27.8434 44.4905 29.8783 45.3333 32 45.3333V29.3333Z" fill="#7450A8"/>
<path d="M32.0001 31.1111C30.3498 31.1111 28.7672 31.7667 27.6003 32.9336C26.4334 34.1005 25.7778 35.6831 25.7778 37.3333C25.7778 38.9836 26.4334 40.5662 27.6003 41.7331C28.7672 42.9 30.3498 43.5556 32.0001 43.5556V31.1111Z" fill="#9268CA"/>
<path d="M35.5555 29.3333C33.4338 29.3333 31.399 30.1762 29.8987 31.6765C28.3984 33.1768 27.5555 35.2116 27.5555 37.3333C27.5555 39.4551 28.3984 41.4899 29.8987 42.9902C31.399 44.4905 33.4338 45.3333 35.5555 45.3333V29.3333Z" fill="#7450A8"/>
<path d="M35.5556 31.1111C33.9054 31.1111 32.3227 31.7667 31.1558 32.9336C29.9889 34.1005 29.3334 35.6831 29.3334 37.3333C29.3334 38.9836 29.9889 40.5662 31.1558 41.7331C32.3227 42.9 33.9054 43.5556 35.5556 43.5556V31.1111Z" fill="#9268CA"/>
<path d="M21.0027 64H33.7209V38.6667C32.9043 38.524 32.0771 38.4496 31.248 38.4444C27.3125 38.4444 23.5381 40.0078 20.7552 42.7907C17.9723 45.5736 16.4089 49.348 16.4089 53.2836C16.4089 57.5004 18.176 61.2978 21.0027 64Z" fill="#7450A8"/>
<path d="M33.4045 32.304V40.288C32.6923 40.1639 31.971 40.0991 31.248 40.0942C29.5159 40.094 27.8007 40.435 26.2004 41.0977C24.6001 41.7605 23.1461 42.732 21.9213 43.9568C20.6965 45.1816 19.725 46.6356 19.0622 48.2359C18.3995 49.8363 18.0585 51.5514 18.0587 53.2836C18.0589 55.3803 18.5599 57.4467 19.52 59.3107C20.4802 61.1747 21.8717 62.7824 23.5787 64H42.5938V27.2587L33.4045 32.304Z" fill="#9268CA"/>
<path d="M43.4453 28.4444L52.0676 37.536L44.4444 45.5556L44.4409 50.9707L37.4364 55.7244L32.7413 48.3662L42.7769 38.0373L39.3298 34.6187L43.4453 28.4444Z" fill="#7450A8"/>
<path d="M43.4453 26.2222L53.1591 36.3449C53.1591 36.3449 56.5315 39.0613 53.1591 42.2702C51.1342 44.1956 38.4462 52.7413 38.4462 52.7413L34.496 48.7911L45.2586 38.32L39.3315 32.3947L43.4453 26.2222Z" fill="#9268CA"/>
<path d="M36.144 48.9458C34.1458 47.9947 32.2507 48.1262 30.4178 49.1982C29.5414 49.712 29.184 50.672 30.5263 50.9902C31.8738 51.3049 36.144 48.9458 36.144 48.9458Z" fill="#664131"/>
<path d="M38.8356 52.3538C39.0827 55.4915 34.8782 58.4231 31.6889 58.0409C29.4098 57.7671 27.4258 51.6267 30.1298 50.8355C32.5404 50.1315 33.2071 47.9413 36.0676 48.7591C38.3396 49.4098 38.7449 51.1484 38.8356 52.3538Z" fill="#7C533E"/>
<path d="M36.7271 53.568L36.3502 52.784C36.3502 52.784 34.9795 54.8231 33.0737 55.6107C31.6284 56.2009 30.4106 56.2595 29.7724 56.1547C30.0462 56.6755 30.0515 56.7644 30.4106 57.0969C32.3964 57.1662 35.5697 56.1013 36.7271 53.568ZM32.7857 53.4987C34.5457 52.2933 35.0595 51.1413 35.0595 51.1413L34.4853 50.4142C34.4853 50.4142 32.4497 53.5715 28.8373 53.4098C28.8639 53.8507 28.8284 53.936 28.9582 54.3875C29.4435 54.4035 31.3564 54.4764 32.7857 53.4987Z" fill="#583529"/>
<path d="M27.6854 8.54934C27.93 9.13133 28.0576 9.75583 28.0608 10.3871C28.064 11.0185 27.9428 11.6442 27.7041 12.2287C27.4653 12.8131 27.1138 13.3448 26.6695 13.7933C26.2252 14.2418 25.6969 14.5984 25.1147 14.8427C24.5307 15.0833 23.9051 15.2064 23.2735 15.2051C22.6419 15.2038 22.0167 15.0781 21.4338 14.835C20.8508 14.592 20.3214 14.2365 19.8759 13.7888C19.4304 13.3411 19.0775 12.8099 18.8374 12.2258C18.5928 11.6436 18.4654 11.0189 18.4625 10.3874C18.4595 9.75592 18.581 9.13005 18.8201 8.54557C19.0592 7.96109 19.4111 7.42946 19.8558 6.98108C20.3004 6.53271 20.8291 6.17637 21.4116 5.93245C21.9953 5.69191 22.6207 5.5688 23.2521 5.57016C23.8834 5.57151 24.5083 5.69731 25.091 5.94036C25.6736 6.1834 26.2027 6.53893 26.6479 6.9866C27.093 7.43427 27.4456 7.96531 27.6854 8.54934Z" fill="#0B0200"/>
<path d="M37.3031 20.976C39.4417 18.4249 40.7182 15.1644 39.6213 12.5298L37.808 8.16177C28.0053 11.8524 23.9715 6.78755 23.9715 6.78755C23.9715 6.78755 25.8915 11.4062 21.7706 13.7582L23.9626 19.0347C25.7546 23.344 28.1973 26.4302 32.5013 24.6613L32.6471 25.2409C33.0133 26.6933 32.7449 27.8684 34.8835 27.9502C36.3786 28.0071 38.3982 25.3369 38.032 23.8844L37.3031 20.976Z" fill="#7C533E"/>
<path d="M48.7288 9.62134C50.1937 5.70667 46.6684 2.73067 43.6675 2.42489C41.8471 2.24001 40.2044 3.40089 39.4044 4.79112C35.7582 -1.31377 30.304 0.12445 26.8337 1.34578C23.1573 2.64001 17.6888 6.44623 19.8346 10.5369C21.9804 14.6293 29.1466 12.8693 29.1466 12.8693L31.7404 17.0507C31.04 13.4524 33.4293 12.6489 34.5333 13.4329C35.696 14.2596 34.9244 16.9102 35.4542 17.9556C35.984 19.0009 37.8186 20.4338 37.8186 20.4338C38.9457 19.0009 42.5031 14.0729 40.8408 8.1049C41.5288 7.84712 42.5617 8.02134 43.3955 8.4569C45.5146 9.55734 43.8453 15.04 46.7928 16.7733C49.6177 18.4356 51.2746 16.1493 51.2746 16.1493C48.3804 16.2453 47.3297 13.3636 48.7288 9.62134Z" fill="#0B0200"/>
<path d="M25.4969 20.9458L24.9493 21.1733C24.8919 21.1989 24.83 21.2127 24.7672 21.214C24.7044 21.2153 24.6419 21.2041 24.5836 21.1809C24.5252 21.1577 24.472 21.123 24.4272 21.079C24.3824 21.035 24.3469 20.9824 24.3227 20.9244C24.2985 20.8664 24.2862 20.8042 24.2864 20.7414C24.2866 20.6786 24.2994 20.6164 24.324 20.5586C24.3486 20.5008 24.3845 20.4485 24.4296 20.4048C24.4747 20.361 24.5281 20.3268 24.5866 20.304L25.136 20.0764C25.1936 20.0494 25.2561 20.0343 25.3197 20.0321C25.3833 20.0299 25.4467 20.0407 25.5061 20.0636C25.5655 20.0866 25.6195 20.1214 25.6651 20.1659C25.7106 20.2103 25.7467 20.2636 25.7711 20.3223C25.7955 20.3811 25.8078 20.4443 25.8071 20.5079C25.8064 20.5716 25.7929 20.6344 25.7672 20.6927C25.7416 20.7509 25.7044 20.8034 25.658 20.8469C25.6115 20.8904 25.5567 20.924 25.4969 20.9458Z" fill="#3D2E24"/>
<path d="M25.7653 17.264C25.5347 17.3594 25.2757 17.3595 25.0451 17.2642C24.8144 17.1689 24.631 16.9859 24.5351 16.7556L24.1706 15.8827C24.0747 15.6516 24.0745 15.3919 24.17 15.1607C24.2655 14.9295 24.4489 14.7457 24.68 14.6498C24.911 14.5538 25.1707 14.5536 25.4019 14.6491C25.6331 14.7446 25.8169 14.9281 25.9129 15.1591L26.2755 16.0302C26.3233 16.1447 26.348 16.2675 26.3482 16.3915C26.3484 16.5156 26.3241 16.6384 26.2767 16.7531C26.2293 16.8677 26.1597 16.9718 26.0719 17.0595C25.9842 17.1472 25.88 17.2167 25.7653 17.264Z" fill="black"/>
<path d="M26.2418 23.0809C26.6738 23.6053 27.1467 24.0427 27.6569 24.384C29.5325 23.3013 29.664 21.6587 29.664 21.6587L26.3307 23.0436L26.2418 23.0809Z" fill="#DF1F32"/>
</g>
<defs>
<clipPath id="clip0_504_915">
<rect width="64" height="64" fill="white"/>
</clipPath>
</defs>
</svg>
